<?xml version="1.0" encoding="UTF-8"?>
<svg xmlns="http://www.w3.org/2000/svg" xmlns:xlink="http://www.w3.org/1999/xlink" viewBox="0 0 50 50" width="50px" height="50px">
<g id="surface6027957">
<path style=" stroke:none;fill-rule:nonzero;fill:rgb(18.039216%,80.000001%,44.313726%);fill-opacity:1;" d="M 39.742188 10.265625 C 35.816406 6.335938 30.589844 4.167969 25.023438 4.167969 C 13.550781 4.167969 4.214844 13.496094 4.210938 24.96875 C 4.210938 28.636719 5.167969 32.214844 6.988281 35.367188 L 4.167969 45.832031 L 15.070312 43.257812 C 18.109375 44.914062 21.527344 45.789062 25.011719 45.789062 L 25.019531 45.789062 C 36.488281 45.789062 45.824219 36.457031 45.832031 24.988281 C 45.835938 19.425781 43.671875 14.199219 39.742188 10.265625 Z M 35.203125 32.402344 C 34.769531 33.617188 32.648438 34.789062 31.695312 34.875 C 30.738281 34.960938 29.847656 35.304688 25.453125 33.574219 C 20.167969 31.492188 16.832031 26.074219 16.574219 25.726562 C 16.3125 25.378906 14.449219 22.910156 14.449219 20.351562 C 14.449219 17.792969 15.792969 16.535156 16.269531 16.015625 C 16.746094 15.492188 17.308594 15.363281 17.660156 15.363281 C 18.003906 15.363281 18.351562 15.363281 18.652344 15.378906 C 19.023438 15.390625 19.433594 15.410156 19.824219 16.273438 C 20.289062 17.304688 21.296875 19.875 21.425781 20.136719 C 21.554688 20.394531 21.644531 20.699219 21.472656 21.046875 C 21.296875 21.390625 21.210938 21.609375 20.953125 21.914062 C 20.691406 22.214844 20.40625 22.589844 20.171875 22.824219 C 19.914062 23.082031 19.640625 23.363281 19.945312 23.882812 C 20.246094 24.402344 21.289062 26.105469 22.835938 27.484375 C 24.824219 29.253906 26.496094 29.800781 27.015625 30.066406 C 27.539062 30.324219 27.839844 30.28125 28.144531 29.933594 C 28.449219 29.585938 29.445312 28.417969 29.789062 27.894531 C 30.136719 27.375 30.484375 27.460938 30.960938 27.636719 C 31.4375 27.808594 33.992188 29.066406 34.511719 29.328125 C 35.035156 29.585938 35.378906 29.714844 35.507812 29.933594 C 35.636719 30.148438 35.636719 31.191406 35.203125 32.402344 Z M 35.203125 32.402344 "/>
</g>
</svg>
